<?xml version="1.0" standalone="no"?>
<!DOCTYPE svg PUBLIC "-//W3C//DTD SVG 20010904//EN"
 "http://www.w3.org/TR/2001/REC-SVG-20010904/DTD/svg10.dtd">
<svg version="1.0" xmlns="http://www.w3.org/2000/svg"
 width="109.000000pt" height="109.000000pt" viewBox="0 0 109.000000 109.000000"
 preserveAspectRatio="xMidYMid meet">
<metadata>
Created by potrace 1.11, written by Peter Selinger 2001-2013
</metadata>
<g transform="translate(0.000000,109.000000) scale(0.100000,-0.100000)"
fill="#000000" stroke="none">
<path d="M190 897 l0 -63 278 57 c152 31 286 59 297 62 11 2 -114 5 -277 6
l-298 1 0 -63z"/>
<path d="M895 948 c2 -7 43 -191 91 -408 47 -217 90 -399 95 -405 5 -5 9 169
9 408 l0 417 -100 0 c-75 0 -98 -3 -95 -12z"/>
<path d="M190 404 l0 -274 437 0 c240 0 434 2 432 4 -2 2 -199 126 -436 275
l-433 270 0 -275z"/>
</g>
</svg>
